<svg width="99" height="93" viewBox="0 0 99 93" fill="none" xmlns="http://www.w3.org/2000/svg">
<path d="M1 45.4144L47.5144 92C55.7704 85.1913 64.0279 78.3825 72.2839 71.5738C67.9616 70.6595 53.0733 66.9823 41.842 53.4772C29.597 38.7525 30.2309 22.6053 30.4971 18.7165C20.6637 27.6158 10.8319 36.5151 1 45.4144Z" fill="white" stroke="white" stroke-miterlimit="10"/>
<path d="M74.9312 68.7083L97.9992 48.4606L65.2877 15.4925C63.3441 18.2597 56.9614 28.0877 58.4805 41.4734C60.3508 57.9488 72.7558 67.149 74.9312 68.7083Z" fill="white" stroke="white" stroke-miterlimit="10"/>
<path d="M50.7295 1L55.0788 5.45757C52.2605 9.26723 47.9306 16.3006 46.7585 25.8838C44.3932 45.2287 56.8191 59.268 59.2382 61.8985C57.0194 60.2485 41.4867 48.2897 41.086 28.2133C40.8034 14.079 48.1863 4.13441 50.7295 1Z" fill="white" stroke="white" stroke-miterlimit="10"/>
</svg>
